<?xml version="1.0" standalone="no"?>
<!DOCTYPE svg PUBLIC "-//W3C//DTD SVG 20010904//EN"
 "http://www.w3.org/TR/2001/REC-SVG-20010904/DTD/svg10.dtd">
<svg version="1.0" xmlns="http://www.w3.org/2000/svg"
 width="1024.000000pt" height="1024.000000pt" viewBox="0 0 1024.000000 1024.000000"
 preserveAspectRatio="xMidYMid meet">
<metadata>
Created by potrace 1.14, written by Peter Selinger 2001-2017
</metadata>
<g transform="translate(0.000000,1024.000000) scale(0.100000,-0.100000)"
fill="#000000" stroke="none">
<path d="M0 5120 l0 -5120 5120 0 5120 0 0 5120 0 5120 -5120 0 -5120 0 0
-5120z m5141 2032 c74 -65 149 -111 206 -128 50 -15 57 -14 116 4 91 28 105
20 155 -86 22 -48 50 -109 61 -137 l21 -50 143 -1 c170 -1 262 -20 452 -91
128 -48 130 -49 133 -82 2 -18 -4 -69 -13 -112 -9 -44 -13 -84 -10 -88 3 -5
23 -12 44 -16 69 -11 125 -55 160 -126 17 -34 31 -69 31 -77 0 -9 -33 -47 -73
-86 l-73 -71 -46 -150 c-54 -172 -93 -241 -183 -323 -106 -97 -208 -132 -389
-132 -61 0 -168 8 -239 17 -124 16 -130 16 -164 -2 -69 -38 -98 -139 -85 -305
5 -58 7 -109 5 -115 -2 -6 -127 -10 -347 -10 l-343 0 5 130 c6 183 -19 258
-102 299 -37 18 -43 18 -161 2 -308 -41 -472 -7 -602 123 -71 71 -127 174
-182 333 -53 154 -53 154 -123 219 l-62 57 28 55 c16 31 42 72 59 93 33 39
116 84 158 84 14 0 28 2 30 5 3 2 -1 42 -7 87 -17 110 -17 134 1 151 19 19
232 90 355 118 61 14 139 23 220 25 l125 4 55 124 c30 68 61 131 69 140 17 20
66 20 122 0 104 -37 172 -16 304 96 39 32 77 59 86 59 9 1 36 -16 60 -37z
m-2760 -2742 c110 -34 131 -65 92 -131 -24 -41 -50 -44 -113 -15 -102 48 -210
27 -210 -40 0 -34 40 -59 132 -84 150 -40 216 -88 239 -173 29 -110 -44 -236
-157 -267 -26 -8 -80 -11 -136 -8 -74 3 -105 9 -153 31 -68 32 -95 53 -95 76
1 26 54 96 76 99 11 2 44 -13 72 -32 61 -40 124 -53 177 -36 66 22 84 89 33
122 -13 8 -65 27 -117 42 -175 51 -220 89 -228 200 -5 53 -2 72 17 111 53 109
213 154 371 105z m1190 0 c241 -75 338 -365 190 -571 -70 -99 -168 -148 -298
-150 -97 -3 -133 5 -206 44 -186 98 -246 353 -125 533 92 136 274 196 439 144z
m1249 -14 c105 -56 148 -158 115 -273 -17 -56 -67 -120 -120 -149 -19 -11 -15
-18 63 -132 45 -66 82 -125 82 -131 0 -7 -32 -11 -88 -11 l-88 0 -76 118 c-75
116 -76 117 -117 120 l-41 3 0 -121 0 -121 -77 3 -78 3 -3 345 c-1 190 0 351
3 358 4 11 44 13 197 10 165 -3 198 -6 228 -22z m864 18 c14 -5 16 -40 16
-290 l0 -284 168 -2 167 -3 0 -65 0 -65 -245 0 -245 0 -3 345 c-1 190 0 351 3
357 5 14 109 18 139 7z m1346 -20 c89 -41 139 -118 140 -215 0 -79 -25 -145
-76 -195 -53 -53 -117 -74 -231 -74 l-83 0 0 -105 0 -105 -80 0 -80 0 0 353
c0 195 3 357 8 361 4 5 86 6 182 4 150 -3 181 -7 220 -24z m1208 14 c7 -7 12
-33 12 -59 0 -76 -7 -79 -186 -79 l-154 0 0 -71 0 -70 146 2 c159 3 164 2 164
-56 0 -16 -3 -40 -6 -52 -6 -23 -9 -23 -155 -23 l-149 0 0 -80 0 -80 168 -2
167 -3 3 -44 c2 -25 1 -55 -3 -68 l-5 -23 -245 0 -245 0 0 353 c0 195 3 357 7
360 12 13 468 8 481 -5z m-930 -1128 c6 0 12 -9 12 -20 0 -18 -5 -20 -36 -18
-46 4 -56 -17 -17 -34 44 -19 63 -39 63 -67 0 -36 -11 -50 -48 -60 -45 -13
-86 0 -90 29 -3 19 -1 21 15 15 33 -15 67 -11 71 7 2 12 -8 22 -32 32 -42 17
-62 56 -45 87 13 24 47 40 74 34 11 -3 26 -5 33 -5z m-4278 -20 c0 -17 -7 -20
-49 -20 -44 0 -49 -2 -44 -20 4 -16 14 -20 44 -20 32 0 39 -3 39 -20 0 -17 -7
-20 -40 -20 l-40 0 0 -40 c0 -36 -2 -40 -25 -40 l-25 0 0 100 0 100 70 0 c63
0 70 -2 70 -20z m420 -31 c13 -28 28 -52 32 -55 4 -3 20 20 35 50 20 42 32 56
49 56 25 0 34 -35 34 -138 0 -60 -1 -63 -22 -60 -20 3 -24 10 -28 58 l-5 55
-20 -40 c-27 -54 -52 -53 -85 5 l-25 45 -5 -60 c-4 -54 -8 -60 -28 -63 -24 -4
-24 -3 -17 75 9 114 12 123 38 123 18 0 29 -11 47 -51z m562 -26 c3 -77 3 -78
31 -81 46 -5 57 12 57 89 0 67 1 69 25 69 24 0 25 -2 25 -75 0 -67 -3 -79 -25
-100 -19 -20 -34 -25 -74 -25 -75 0 -91 22 -91 122 0 76 1 78 25 78 23 0 24
-3 27 -77z m596 16 l47 -61 3 61 c3 58 4 61 28 61 l25 0 -3 -97 c-3 -97 -3
-98 -28 -101 -22 -2 -34 8 -75 65 l-50 68 -5 -65 c-4 -51 -9 -66 -22 -68 -16
-3 -18 7 -18 97 l0 101 25 0 c19 0 37 -15 73 -61z m630 44 c-2 -13 -14 -19
-41 -21 -27 -2 -37 -8 -37 -20 0 -13 9 -17 33 -17 25 0 32 -4 32 -20 0 -15 -8
-21 -35 -25 -32 -5 -35 -8 -35 -40 0 -29 -4 -36 -22 -38 -22 -3 -23 -1 -23 77
0 80 0 81 -25 81 -18 0 -25 5 -25 20 0 19 7 20 91 20 81 0 90 -2 87 -17z m522
-3 c0 -16 -7 -20 -35 -20 l-34 0 -3 -77 c-3 -72 -5 -78 -25 -81 -22 -3 -23 -1
-23 77 0 79 0 80 -27 83 -17 2 -29 10 -31 21 -3 15 6 17 87 17 84 0 91 -1 91
-20z m496 -65 c18 -44 33 -88 34 -97 0 -26 -40 -23 -47 2 -4 17 -14 20 -54 20
-38 0 -51 -4 -59 -20 -11 -20 -35 -27 -44 -11 -3 4 11 49 31 100 l37 92 34 -3
c33 -3 36 -7 68 -83z m454 35 c13 -27 28 -50 33 -50 5 0 18 23 30 50 18 43 25
50 49 50 27 0 28 -2 28 -47 0 -27 3 -72 7 -101 6 -52 5 -54 -18 -50 -22 3 -25
9 -29 63 l-6 60 -18 -42 c-29 -67 -63 -66 -88 3 -18 51 -28 41 -28 -26 0 -58
-1 -60 -26 -60 l-27 0 6 68 c4 37 7 82 7 100 0 28 3 32 28 32 24 0 32 -7 52
-50z"/>
<path d="M4937 6972 c-74 -39 -98 -47 -155 -50 -43 -2 -83 2 -110 11 l-43 15
-36 -71 c-119 -237 -144 -401 -96 -620 15 -67 16 -68 96 -136 82 -68 149 -136
199 -200 l27 -35 5 25 c3 13 15 65 26 114 25 116 49 196 95 320 20 55 46 124
56 154 16 43 19 67 14 116 -6 55 5 246 21 363 4 23 2 42 -2 41 -5 0 -48 -22
-97 -47z"/>
<path d="M5129 6958 c-15 -58 -26 -237 -18 -318 4 -47 18 -92 47 -155 37 -81
139 -412 157 -507 4 -21 8 -38 9 -38 2 0 43 39 92 88 49 48 124 110 166 137
72 47 78 53 89 99 7 31 10 93 6 170 -6 145 -35 251 -108 404 -54 111 -51 109
-136 93 -58 -11 -133 3 -210 39 -36 16 -69 30 -74 30 -4 0 -13 -19 -20 -42z"/>
<path d="M4245 6670 c-141 -14 -401 -88 -412 -117 -5 -13 21 -141 31 -150 2
-2 43 -8 92 -14 114 -12 252 -50 365 -99 l89 -39 -8 42 c-8 47 -10 306 -2 352
5 29 4 30 -35 31 -22 1 -76 -2 -120 -6z"/>
<path d="M5744 6629 c23 -151 26 -193 21 -271 -4 -49 -4 -88 -1 -88 3 0 39 13
80 30 112 44 225 70 344 78 l106 7 12 42 c7 23 14 58 16 79 3 36 0 40 -34 56
-117 56 -274 92 -450 104 l-101 7 7 -44z"/>
<path d="M5050 6365 c-21 -26 -88 -241 -125 -405 l-36 -160 50 -108 c50 -109
101 -247 101 -276 0 -41 18 -7 45 82 16 53 58 155 94 225 l64 128 -16 97 c-16
93 -108 394 -129 420 -14 16 -33 15 -48 -3z"/>
<path d="M3722 6289 c-24 -4 -58 -17 -76 -28 -32 -20 -63 -68 -51 -79 3 -3 65
-5 138 -3 154 3 234 -8 372 -50 234 -72 389 -191 525 -400 96 -150 151 -313
172 -512 7 -67 17 -114 25 -123 9 -9 36 -14 73 -14 77 0 90 17 90 115 -1 259
-178 624 -395 816 -235 207 -617 329 -873 278z"/>
<path d="M6067 6275 c-392 -74 -738 -356 -877 -717 -78 -202 -106 -392 -67
-451 16 -24 23 -27 77 -27 77 0 90 13 90 89 0 82 24 211 58 311 105 309 343
551 638 649 116 39 212 51 395 51 159 0 165 2 133 48 -32 46 -69 56 -224 59
-96 1 -172 -3 -223 -12z"/>
<path d="M3708 6085 c-11 -12 63 -263 98 -335 41 -83 134 -184 195 -213 81
-37 159 -50 279 -44 116 5 317 40 335 58 14 14 -52 139 -113 214 -97 121 -247
223 -402 274 -109 35 -372 66 -392 46z"/>
<path d="M6125 6075 c-172 -33 -319 -111 -457 -243 -102 -98 -206 -265 -177
-283 16 -10 157 -36 259 -49 286 -34 451 30 552 216 21 39 118 341 118 368 0
11 -223 4 -295 -9z"/>
<path d="M3353 4255 c-115 -57 -156 -205 -89 -319 51 -86 167 -127 260 -92 47
18 120 88 136 132 18 45 11 126 -14 179 -27 59 -46 77 -106 104 -62 28 -125
27 -187 -4z"/>
<path d="M4550 4180 l0 -100 79 0 c95 0 141 24 154 80 20 82 -30 120 -158 120
l-75 0 0 -100z"/>
<path d="M6780 4161 l0 -111 53 0 c123 1 182 38 182 115 0 35 -6 50 -28 72
-25 26 -35 28 -117 31 l-90 4 0 -111z"/>
<path d="M6172 3205 c-17 -37 -15 -45 13 -45 26 0 29 9 19 48 -8 29 -18 28
-32 -3z"/>
</g>
</svg>
