<?xml version="1.0" standalone="no"?>
<!DOCTYPE svg PUBLIC "-//W3C//DTD SVG 20010904//EN"
 "http://www.w3.org/TR/2001/REC-SVG-20010904/DTD/svg10.dtd">
<svg version="1.0" xmlns="http://www.w3.org/2000/svg"
 width="1024.000000pt" height="1024.000000pt" viewBox="0 0 1024.000000 1024.000000"
 preserveAspectRatio="xMidYMid meet">
<metadata>
Created by potrace 1.14, written by Peter Selinger 2001-2017
</metadata>
<g transform="translate(0.000000,1024.000000) scale(0.100000,-0.100000)"
fill="#000000" stroke="none">
<path d="M0 5120 l0 -5120 5120 0 5120 0 0 5120 0 5120 -5120 0 -5120 0 0
-5120z m5305 2755 c50 -27 126 -71 169 -98 82 -51 334 -191 397 -220 72 -33
70 -38 -60 -116 -66 -39 -124 -71 -130 -71 -11 0 -504 254 -536 276 -36 26 1
43 -475 -219 -257 -141 -327 -179 -435 -237 -176 -93 -359 -192 -400 -215 -22
-13 -69 -38 -105 -57 -36 -19 -189 -103 -342 -186 -152 -83 -301 -164 -332
-179 l-56 -27 0 -1498 c0 -824 -2 -1498 -5 -1498 -3 0 -64 29 -135 65 l-130
65 0 1518 0 1517 143 74 c142 74 467 251 837 456 259 143 348 192 650 358 509
279 556 305 610 337 30 18 70 41 89 51 l35 19 60 -34 c34 -18 102 -55 151 -81z
m-152 -526 c23 -12 143 -77 267 -144 124 -67 284 -152 355 -190 246 -128 382
-200 725 -382 96 -51 178 -93 183 -93 4 0 7 108 7 239 l0 240 128 -61 c70 -34
131 -64 135 -68 13 -11 9 -3001 -4 -3016 -6 -7 -19 -16 -30 -19 -20 -7 -335
-174 -509 -270 -52 -29 -133 -73 -180 -98 -47 -24 -150 -80 -230 -124 -171
-93 -480 -261 -708 -385 -90 -48 -168 -88 -173 -88 -11 0 -261 131 -679 355
-373 200 -741 396 -832 443 l-78 40 0 -239 c0 -131 -3 -239 -7 -239 -5 0 -65
28 -135 62 l-127 63 2 1495 2 1495 75 41 c88 47 281 155 580 321 226 126 307
170 695 381 132 72 292 160 355 196 63 36 121 65 128 65 7 1 32 -9 55 -20z
m2205 -696 l132 -68 -2 -1514 -3 -1514 -200 -107 c-110 -58 -420 -227 -690
-375 -269 -147 -611 -333 -760 -413 -148 -80 -364 -196 -480 -259 -185 -100
-212 -112 -236 -104 -23 8 -302 153 -691 361 -54 28 -100 55 -103 60 -3 5 9
17 27 26 18 9 76 46 130 81 l96 63 270 -140 c148 -77 275 -140 283 -140 7 0
112 55 233 122 392 216 745 408 1046 568 85 46 261 140 390 210 129 70 274
148 323 174 l87 47 0 1495 c0 821 3 1494 8 1494 4 1 67 -30 140 -67z"/>
<path d="M5000 6977 c-52 -30 -194 -106 -315 -171 -305 -162 -347 -185 -365
-200 -8 -7 -28 -18 -45 -23 -16 -6 -54 -27 -84 -47 -29 -20 -57 -36 -62 -36
-4 0 -30 -13 -56 -28 -26 -16 -104 -58 -173 -94 -69 -37 -179 -97 -245 -135
l-120 -68 -3 -1057 -2 -1058 37 -23 c21 -13 97 -54 168 -92 72 -37 234 -123
360 -190 222 -118 772 -411 942 -501 45 -24 86 -44 91 -44 5 0 60 29 123 63
356 199 607 338 709 392 63 34 187 102 275 150 277 153 429 235 436 235 15 0
27 2125 12 2146 -4 6 -73 45 -153 86 -80 42 -197 103 -260 136 -63 32 -225
118 -360 189 -135 72 -321 170 -415 218 -93 48 -220 114 -281 146 -61 33 -113
59 -116 59 -2 0 -46 -24 -98 -53z m187 -256 c148 -83 1059 -575 1175 -634 l57
-29 3 -96 c2 -54 3 -470 3 -927 l0 -829 -105 -59 c-58 -32 -222 -122 -365
-199 -143 -77 -300 -164 -350 -193 -49 -29 -128 -73 -175 -97 -125 -66 -273
-149 -287 -160 -13 -10 -176 69 -448 217 -165 90 -424 228 -747 397 l-158 83
-1 70 c-4 159 -4 243 -1 991 l2 782 253 139 c138 77 347 191 462 253 262 141
530 287 570 311 17 10 33 19 37 19 3 0 37 -17 75 -39z"/>
<path d="M4905 6314 c-180 -95 -266 -142 -640 -349 l-200 -111 -3 -726 -2
-727 67 -39 c71 -41 831 -446 941 -501 l63 -32 122 67 c67 37 201 111 297 164
96 53 247 136 335 185 88 48 184 101 213 117 l52 29 0 743 0 743 -202 106
c-112 57 -324 167 -473 242 -148 76 -289 148 -312 161 -23 13 -50 24 -60 24
-10 -1 -99 -44 -198 -96z"/>
</g>
</svg>
