<?xml version="1.0" standalone="no"?>
<!DOCTYPE svg PUBLIC "-//W3C//DTD SVG 20010904//EN"
 "http://www.w3.org/TR/2001/REC-SVG-20010904/DTD/svg10.dtd">
<svg version="1.0" xmlns="http://www.w3.org/2000/svg"
 width="512.000000pt" height="512.000000pt" viewBox="0 0 512.000000 512.000000"
 preserveAspectRatio="xMidYMid meet">
<metadata>
Created by potrace 1.14, written by Peter Selinger 2001-2017
</metadata>
<g transform="translate(0.000000,512.000000) scale(0.100000,-0.100000)"
fill="#000000" stroke="none">
<path d="M0 2560 l0 -2560 2560 0 2560 0 0 2560 0 2560 -2560 0 -2560 0 0
-2560z m1305 1119 c12 -38 68 -90 129 -121 85 -43 196 -79 456 -149 467 -125
622 -195 649 -294 10 -41 25 -41 39 -1 15 42 75 97 141 130 89 46 182 76 491
161 324 88 437 127 511 174 49 30 89 78 89 105 0 9 7 16 15 16 13 0 15 -24 15
-160 0 -185 -6 -208 -71 -263 -83 -72 -204 -117 -559 -208 -288 -75 -375 -102
-465 -145 -92 -44 -139 -84 -161 -139 -21 -51 -34 -53 -46 -8 -12 45 -89 110
-181 153 -91 42 -211 79 -457 140 -382 95 -543 163 -599 254 -19 30 -21 48
-21 205 0 158 8 205 25 150z m3 -676 c31 -86 164 -153 462 -233 85 -23 234
-64 330 -91 272 -77 420 -158 440 -241 9 -34 25 -31 38 6 15 42 74 97 139 130
78 39 214 83 448 146 356 96 456 129 550 185 51 29 95 79 95 106 0 10 7 19 15
19 13 0 15 -24 15 -160 0 -183 -6 -206 -68 -262 -82 -74 -186 -113 -537 -204
-481 -125 -618 -187 -655 -298 -6 -20 -15 -36 -20 -36 -5 0 -18 19 -28 43 -49
110 -163 164 -587 273 -421 109 -567 167 -632 253 l-33 43 0 174 c0 168 7 205
28 147z m5 -682 c40 -90 176 -150 580 -257 453 -118 624 -196 643 -293 8 -41
27 -39 42 3 16 45 66 88 150 130 94 47 209 85 492 160 430 115 546 167 587
263 26 64 33 36 33 -134 0 -158 -1 -168 -24 -207 -58 -98 -179 -150 -610 -262
-386 -100 -488 -138 -571 -215 -24 -23 -49 -56 -55 -75 -15 -44 -27 -43 -46 6
-44 109 -174 168 -613 281 -368 95 -489 139 -574 209 -62 52 -66 68 -67 251
-1 196 -2 179 8 179 5 0 16 -18 25 -39z"/>
</g>
</svg>
